<svg width="393" height="64" viewBox="0 0 393 64" fill="none" xmlns="http://www.w3.org/2000/svg">
<g clip-path="url(#clip0_2_718)">
<mask id="mask0_2_718" style="mask-type:alpha" maskUnits="userSpaceOnUse" x="28" y="20" width="24" height="24">
<rect x="28" y="20" width="24" height="24" fill="#D9D9D9"/>
</mask>
<g mask="url(#mask0_2_718)">
<path d="M37.952 37.6538L32.298 32L37.952 26.3463L39.0058 27.4308L35.1865 31.25H47.702V32.75H35.1865L39.0058 36.5693L37.952 37.6538Z" fill="#171D1E"/>
</g>
</g>
<mask id="mask1_2_718" style="mask-type:alpha" maskUnits="userSpaceOnUse" x="341" y="20" width="24" height="24">
<rect x="341" y="20" width="24" height="24" fill="#D9D9D9"/>
</mask>
<g mask="url(#mask1_2_718)">
<path d="M352.25 36.75H353.75V31H352.25V36.75ZM353 29.2885C353.229 29.2885 353.421 29.2111 353.575 29.0563C353.73 28.9014 353.808 28.7096 353.808 28.4807C353.808 28.2519 353.73 28.0601 353.575 27.9053C353.421 27.7506 353.229 27.6732 353 27.6732C352.771 27.6732 352.579 27.7506 352.425 27.9053C352.27 28.0601 352.192 28.2519 352.192 28.4807C352.192 28.7096 352.27 28.9014 352.425 29.0563C352.579 29.2111 352.771 29.2885 353 29.2885ZM353.002 41.5C351.688 41.5 350.453 41.2507 349.296 40.752C348.14 40.2533 347.135 39.5766 346.279 38.7218C345.424 37.8669 344.747 36.8617 344.248 35.706C343.749 34.5503 343.5 33.3156 343.5 32.0017C343.5 30.6877 343.749 29.4527 344.248 28.2965C344.747 27.1403 345.423 26.1347 346.278 25.2795C347.133 24.4243 348.138 23.7472 349.294 23.2482C350.45 22.7494 351.684 22.5 352.998 22.5C354.312 22.5 355.547 22.7493 356.704 23.248C357.86 23.7467 358.865 24.4234 359.721 25.2783C360.576 26.1331 361.253 27.1383 361.752 28.294C362.251 29.4497 362.5 30.6844 362.5 31.9983C362.5 33.3123 362.251 34.5473 361.752 35.7035C361.253 36.8597 360.577 37.8653 359.722 38.7205C358.867 39.5757 357.862 40.2528 356.706 40.7518C355.55 41.2506 354.316 41.5 353.002 41.5ZM353 40C355.233 40 357.125 39.225 358.675 37.675C360.225 36.125 361 34.2333 361 32C361 29.7667 360.225 27.875 358.675 26.325C357.125 24.775 355.233 24 353 24C350.767 24 348.875 24.775 347.325 26.325C345.775 27.875 345 29.7667 345 32C345 34.2333 345.775 36.125 347.325 37.675C348.875 39.225 350.767 40 353 40Z" fill="#171D1E"/>
</g>
<defs>
<clipPath id="clip0_2_718">
<rect x="20" y="12" width="40" height="40" rx="20" fill="white"/>
</clipPath>
</defs>
</svg>
